<?xml version="1.0" standalone="no"?>
<!DOCTYPE svg PUBLIC "-//W3C//DTD SVG 20010904//EN"
 "http://www.w3.org/TR/2001/REC-SVG-20010904/DTD/svg10.dtd">
<svg version="1.0" xmlns="http://www.w3.org/2000/svg"
 width="700.000000pt" height="700.000000pt" viewBox="0 0 700.000000 700.000000"
 preserveAspectRatio="xMidYMid meet">
<metadata>
Created by potrace 1.14, written by Peter Selinger 2001-2017
</metadata>
<g transform="translate(0.000000,700.000000) scale(0.100000,-0.100000)"
fill="#000000" stroke="none">
<path d="M0 3500 l0 -3500 3500 0 3500 0 0 3500 0 3500 -3500 0 -3500 0 0
-3500z m3791 2096 c149 -43 385 -128 499 -179 414 -185 761 -600 929 -1112
206 -626 144 -1305 -170 -1870 -90 -162 -161 -258 -273 -371 -286 -288 -628
-394 -1268 -394 -357 0 -533 31 -736 131 -178 87 -407 279 -603 506 -279 323
-333 521 -333 1223 0 543 31 774 139 1022 91 210 314 506 515 684 223 197 424
283 900 385 167 35 200 33 401 -25z"/>
<path d="M3366 4984 c-109 -20 -277 -77 -356 -121 -288 -159 -452 -396 -545
-785 -40 -168 -50 -269 -50 -498 0 -157 5 -246 18 -328 52 -332 165 -593 330
-762 313 -321 832 -402 1266 -199 310 145 479 369 574 759 82 335 82 749 2
1088 -93 388 -248 616 -507 746 -167 84 -270 107 -483 112 -122 2 -192 -1
-249 -12z"/>
</g>
</svg>
